<svg xmlns="http://www.w3.org/2000/svg" viewBox="350.9545629056186 160.2140490116768 146.42774415464334 184.21535038856555" width="146.42774415464334" height="184.21535038856555"><metadata><rdf:RDF xmlns:rdf="http://www.w3.org/1999/02/22-rdf-syntax-ns#" xmlns:dc="http://purl.org/dc/elements/1.1/"><rdf:Description><dc:creator>RealFaviconGenerator</dc:creator><dc:source>https://realfavicongenerator.net</dc:source></rdf:Description></rdf:RDF></metadata><path d="M 443.38230706026195 218.85506516305435 L 413.38230706026195 201.53455708736556 L 443.38230706026195 184.2140490116768 L 473.38230706026195 201.53455708736556 Z" fill="#6fbaff" fill-rule="evenodd" stroke="none"></path><path d="M 443.38230706026195 218.85506516305435 L 413.38230706026195 201.53455708736556 L 443.38230706026195 184.2140490116768 L 473.38230706026195 201.53455708736556 Z" fill="none" stroke="#000000" stroke-width="2" stroke-linejoin="round" stroke-linecap="butt"></path><path d="M 375 233.82685902179844 L 405 251.14736709748723 L 405 320.42939940024235 L 375 303.10889132455355 L 375 233.82685902179844 Z" fill="#488ccd" fill-rule="evenodd" stroke="none"></path><path d="M 375 233.82685902179844 L 375 268.46787517317597 L 405 285.78838324886476 L 405 251.14736709748723 Z" fill="none" stroke="#000000" stroke-width="2" stroke-linejoin="round" stroke-linecap="butt"></path><path d="M 375 268.46787517317597 L 375 303.10889132455355 L 405 320.42939940024235 L 405 285.78838324886476 Z" fill="none" stroke="#000000" stroke-width="2" stroke-linejoin="round" stroke-linecap="butt"></path><path d="M 465 251.14736709748723 L 435 233.82685902179844 L 435 268.46787517317597 Z" fill="#6fbaff" fill-rule="evenodd" stroke="none"></path><path d="M 465 251.14736709748723 L 435 233.82685902179844 L 435 268.46787517317597 Z" fill="none" stroke="#000000" stroke-width="2" stroke-linejoin="round" stroke-linecap="butt"></path><path d="M 443.38230706026195 218.85506516305438 L 443.38230706026195 253.49608131443193 L 473.38230706026195 236.17557323874314 L 473.38230706026195 201.53455708736558 Z" fill="#ffffff" fill-rule="evenodd" stroke="none"></path><path d="M 443.38230706026195 218.85506516305438 L 443.38230706026195 253.49608131443193 L 473.38230706026195 236.17557323874314 L 473.38230706026195 201.53455708736558 Z" fill="none" stroke="#000000" stroke-width="2" stroke-linejoin="round" stroke-linecap="butt"></path><path d="M 413.38230706026195 201.5345570873656 L 413.38230706026195 236.17557323874317 L 443.38230706026195 253.49608131443196 L 443.38230706026195 218.8550651630544 Z" fill="#488ccd" fill-rule="evenodd" stroke="none"></path><path d="M 413.38230706026195 201.5345570873656 L 413.38230706026195 236.17557323874317 L 443.38230706026195 253.49608131443196 L 443.38230706026195 218.8550651630544 Z" fill="none" stroke="#000000" stroke-width="2" stroke-linejoin="round" stroke-linecap="butt"></path><path d="M 405 251.14736709748723 L 435 233.82685902179844 L 435 268.46787517317597 L 465 251.14736709748723 L 465 285.78838324886476 L 405 320.42939940024235 L 405 251.14736709748723 Z" fill="#ffffff" fill-rule="evenodd" stroke="none"></path><path d="M 405 251.14736709748723 L 435 233.82685902179844 L 435 268.46787517317597 L 405 285.78838324886476 Z" fill="none" stroke="#000000" stroke-width="2" stroke-linejoin="round" stroke-linecap="butt"></path><path d="M 405 285.78838324886476 L 435 268.46787517317597 L 435 303.10889132455355 L 405 320.42939940024235 Z" fill="none" stroke="#000000" stroke-width="2" stroke-linejoin="round" stroke-linecap="butt"></path><path d="M 435 268.46787517317597 L 465 251.14736709748723 L 465 285.78838324886476 L 435 303.10889132455355 Z" fill="none" stroke="#000000" stroke-width="2" stroke-linejoin="round" stroke-linecap="butt"></path><path d="M 404.9545629056186 216.50635094610968 L 374.9545629056186 233.82685902179844 L 404.9545629056186 251.14736709748723 L 434.9545629056186 233.82685902179844 Z" fill="#6fbaff" fill-rule="evenodd" stroke="none"></path><path d="M 404.9545629056186 216.50635094610968 L 374.9545629056186 233.82685902179844 L 404.9545629056186 251.14736709748723 L 434.9545629056186 233.82685902179844 Z" fill="none" stroke="#000000" stroke-width="2" stroke-linejoin="round" stroke-linecap="butt"></path></svg>