<?xml version="1.0" encoding="UTF-8" standalone="no"?>
<!DOCTYPE svg PUBLIC "-//W3C//DTD SVG 1.1//EN" "http://www.w3.org/Graphics/SVG/1.1/DTD/svg11.dtd">
<svg width="100%" height="100%" viewBox="0 0 856 148" version="1.1" xmlns="http://www.w3.org/2000/svg" xmlns:xlink="http://www.w3.org/1999/xlink" xml:space="preserve" xmlns:serif="http://www.serif.com/" style="fill-rule:evenodd;clip-rule:evenodd;stroke-linejoin:round;">
    <g transform="matrix(1,0,0,1,-85.881244,-403.431412)">
        <g transform="matrix(1.66124,0,0,1.66124,-432.626835,-229.307117)">
            <g transform="matrix(50,0,0,50,396.447653,437.693339)">
                <path d="M0.073,-0L0.073,-0.728L0.204,-0.728L0.204,-0.11L0.525,-0.11L0.525,-0L0.073,-0Z" style="fill:rgb(225,225,225);fill-rule:nonzero;"/>
            </g>
            <g transform="matrix(50,0,0,50,424.719137,437.693339)">
                <path d="M0.304,0.011C0.251,0.011 0.205,-0.001 0.166,-0.024C0.127,-0.048 0.097,-0.081 0.075,-0.123C0.054,-0.165 0.043,-0.214 0.043,-0.27C0.043,-0.327 0.054,-0.376 0.075,-0.419C0.097,-0.461 0.127,-0.494 0.166,-0.517C0.205,-0.541 0.251,-0.553 0.304,-0.553C0.357,-0.553 0.404,-0.541 0.443,-0.517C0.482,-0.494 0.512,-0.461 0.533,-0.419C0.555,-0.376 0.565,-0.327 0.565,-0.27C0.565,-0.214 0.555,-0.165 0.533,-0.123C0.512,-0.081 0.482,-0.048 0.443,-0.024C0.404,-0.001 0.357,0.011 0.304,0.011ZM0.304,-0.092C0.334,-0.092 0.358,-0.1 0.378,-0.116C0.398,-0.132 0.412,-0.153 0.422,-0.18C0.432,-0.207 0.436,-0.237 0.436,-0.271C0.436,-0.304 0.432,-0.334 0.422,-0.361C0.412,-0.388 0.398,-0.41 0.378,-0.426C0.358,-0.442 0.334,-0.45 0.304,-0.45C0.275,-0.45 0.25,-0.442 0.231,-0.426C0.211,-0.41 0.197,-0.388 0.187,-0.361C0.177,-0.335 0.173,-0.304 0.173,-0.271C0.173,-0.237 0.177,-0.207 0.187,-0.18C0.197,-0.153 0.211,-0.132 0.231,-0.116C0.25,-0.1 0.275,-0.092 0.304,-0.092Z" style="fill:rgb(225,225,225);fill-rule:nonzero;"/>
            </g>
            <g transform="matrix(50,0,0,50,455.156619,437.693339)">
                <path d="M0.303,0.216C0.259,0.216 0.221,0.21 0.189,0.199C0.156,0.188 0.13,0.173 0.109,0.154C0.088,0.135 0.074,0.113 0.064,0.089L0.172,0.051C0.178,0.061 0.186,0.071 0.196,0.082C0.206,0.093 0.22,0.102 0.237,0.109C0.254,0.116 0.276,0.119 0.302,0.119C0.342,0.119 0.373,0.11 0.397,0.092C0.421,0.073 0.432,0.045 0.432,0.006L0.432,-0.098L0.422,-0.098C0.416,-0.085 0.406,-0.071 0.394,-0.057C0.382,-0.043 0.366,-0.032 0.346,-0.022C0.326,-0.013 0.3,-0.008 0.268,-0.008C0.226,-0.008 0.188,-0.018 0.154,-0.038C0.12,-0.057 0.093,-0.087 0.073,-0.127C0.053,-0.166 0.043,-0.215 0.043,-0.274C0.043,-0.334 0.053,-0.385 0.074,-0.426C0.094,-0.468 0.121,-0.499 0.155,-0.52C0.189,-0.542 0.227,-0.553 0.269,-0.553C0.301,-0.553 0.328,-0.547 0.349,-0.537C0.37,-0.526 0.386,-0.513 0.399,-0.498C0.411,-0.483 0.42,-0.468 0.427,-0.456L0.434,-0.456L0.434,-0.546L0.558,-0.546L0.558,0.002C0.558,0.05 0.547,0.09 0.525,0.122C0.503,0.154 0.473,0.177 0.434,0.193C0.396,0.208 0.352,0.216 0.303,0.216ZM0.304,-0.108C0.331,-0.108 0.355,-0.115 0.374,-0.128C0.393,-0.142 0.408,-0.161 0.418,-0.186C0.428,-0.211 0.433,-0.241 0.433,-0.276C0.433,-0.31 0.428,-0.34 0.418,-0.366C0.408,-0.392 0.394,-0.412 0.374,-0.427C0.355,-0.441 0.332,-0.448 0.304,-0.448C0.275,-0.448 0.251,-0.441 0.232,-0.426C0.212,-0.411 0.198,-0.39 0.188,-0.364C0.178,-0.338 0.173,-0.309 0.173,-0.276C0.173,-0.242 0.178,-0.213 0.188,-0.188C0.198,-0.162 0.213,-0.143 0.232,-0.129C0.251,-0.115 0.275,-0.108 0.304,-0.108Z" style="fill:rgb(225,225,225);fill-rule:nonzero;"/>
            </g>
            <g transform="matrix(50,0,0,50,486.43589,437.693339)">
                <path d="M0.304,0.011C0.251,0.011 0.205,-0.001 0.166,-0.024C0.127,-0.048 0.097,-0.081 0.075,-0.123C0.054,-0.165 0.043,-0.214 0.043,-0.27C0.043,-0.327 0.054,-0.376 0.075,-0.419C0.097,-0.461 0.127,-0.494 0.166,-0.517C0.205,-0.541 0.251,-0.553 0.304,-0.553C0.357,-0.553 0.404,-0.541 0.443,-0.517C0.482,-0.494 0.512,-0.461 0.533,-0.419C0.555,-0.376 0.565,-0.327 0.565,-0.27C0.565,-0.214 0.555,-0.165 0.533,-0.123C0.512,-0.081 0.482,-0.048 0.443,-0.024C0.404,-0.001 0.357,0.011 0.304,0.011ZM0.304,-0.092C0.334,-0.092 0.358,-0.1 0.378,-0.116C0.398,-0.132 0.412,-0.153 0.422,-0.18C0.432,-0.207 0.436,-0.237 0.436,-0.271C0.436,-0.304 0.432,-0.334 0.422,-0.361C0.412,-0.388 0.398,-0.41 0.378,-0.426C0.358,-0.442 0.334,-0.45 0.304,-0.45C0.275,-0.45 0.25,-0.442 0.231,-0.426C0.211,-0.41 0.197,-0.388 0.187,-0.361C0.177,-0.335 0.173,-0.304 0.173,-0.271C0.173,-0.237 0.177,-0.207 0.187,-0.18C0.197,-0.153 0.211,-0.132 0.231,-0.116C0.25,-0.1 0.275,-0.092 0.304,-0.092Z" style="fill:rgb(225,225,225);fill-rule:nonzero;"/>
            </g>
            <g transform="matrix(50,0,0,50,516.873372,437.693339)">
            </g>
            <g transform="matrix(50,0,0,50,529.459369,437.693339)">
                <path d="M0.073,-0L0.073,-0.728L0.204,-0.728L0.204,-0.11L0.525,-0.11L0.525,-0L0.073,-0Z" style="fill:rgb(225,225,225);fill-rule:nonzero;"/>
            </g>
            <g transform="matrix(50,0,0,50,557.730854,437.693339)">
                <path d="M0.22,0.011C0.185,0.011 0.154,0.005 0.126,-0.007C0.099,-0.02 0.077,-0.038 0.061,-0.063C0.045,-0.087 0.037,-0.118 0.037,-0.154C0.037,-0.184 0.043,-0.21 0.054,-0.23C0.066,-0.25 0.081,-0.266 0.101,-0.278C0.121,-0.29 0.143,-0.299 0.168,-0.305C0.193,-0.312 0.218,-0.316 0.245,-0.319C0.277,-0.322 0.303,-0.326 0.322,-0.328C0.342,-0.331 0.357,-0.335 0.366,-0.341C0.375,-0.347 0.38,-0.356 0.38,-0.368L0.38,-0.371C0.38,-0.389 0.376,-0.404 0.369,-0.416C0.362,-0.429 0.351,-0.438 0.337,-0.445C0.323,-0.452 0.306,-0.455 0.285,-0.455C0.264,-0.455 0.245,-0.452 0.23,-0.445C0.214,-0.439 0.202,-0.43 0.192,-0.42C0.182,-0.409 0.175,-0.398 0.17,-0.386L0.053,-0.41C0.063,-0.442 0.08,-0.469 0.103,-0.49C0.125,-0.511 0.152,-0.527 0.183,-0.537C0.214,-0.548 0.248,-0.553 0.284,-0.553C0.31,-0.553 0.336,-0.55 0.362,-0.544C0.388,-0.538 0.412,-0.527 0.434,-0.513C0.456,-0.499 0.474,-0.48 0.487,-0.456C0.5,-0.432 0.507,-0.401 0.507,-0.365L0.507,-0L0.385,-0L0.385,-0.075L0.38,-0.075C0.372,-0.06 0.361,-0.045 0.347,-0.032C0.333,-0.019 0.315,-0.009 0.294,-0.001C0.273,0.007 0.248,0.011 0.22,0.011ZM0.253,-0.083C0.279,-0.083 0.301,-0.088 0.321,-0.099C0.34,-0.109 0.354,-0.123 0.365,-0.14C0.375,-0.157 0.381,-0.176 0.381,-0.196L0.381,-0.26C0.376,-0.257 0.37,-0.254 0.36,-0.251C0.35,-0.248 0.339,-0.246 0.327,-0.243C0.314,-0.241 0.302,-0.239 0.29,-0.237C0.279,-0.236 0.269,-0.235 0.26,-0.233C0.241,-0.231 0.224,-0.227 0.209,-0.221C0.194,-0.215 0.182,-0.206 0.173,-0.196C0.164,-0.185 0.16,-0.172 0.16,-0.155C0.16,-0.139 0.164,-0.126 0.172,-0.115C0.18,-0.105 0.191,-0.097 0.205,-0.091C0.219,-0.086 0.235,-0.083 0.253,-0.083Z" style="fill:rgb(225,225,225);fill-rule:nonzero;"/>
            </g>
            <g transform="matrix(50,0,0,50,586.439812,437.693339)">
                <path d="M0.32,-0.546L0.32,-0.446L0.01,-0.446L0.01,-0.546L0.32,-0.546ZM0.087,-0.676L0.214,-0.676L0.214,-0.154C0.214,-0.134 0.218,-0.12 0.227,-0.11C0.235,-0.101 0.249,-0.096 0.269,-0.096C0.274,-0.096 0.282,-0.097 0.292,-0.098C0.301,-0.1 0.309,-0.101 0.315,-0.102L0.335,-0.005C0.321,-0 0.307,0.003 0.292,0.005C0.277,0.006 0.263,0.007 0.25,0.007C0.198,0.007 0.157,-0.006 0.129,-0.032C0.101,-0.058 0.087,-0.095 0.087,-0.143L0.087,-0.676Z" style="fill:rgb(225,225,225);fill-rule:nonzero;"/>
            </g>
            <g transform="matrix(50,0,0,50,603.756166,437.693339)">
                <path d="M0.32,-0.546L0.32,-0.446L0.01,-0.446L0.01,-0.546L0.32,-0.546ZM0.087,-0.676L0.214,-0.676L0.214,-0.154C0.214,-0.134 0.218,-0.12 0.227,-0.11C0.235,-0.101 0.249,-0.096 0.269,-0.096C0.274,-0.096 0.282,-0.097 0.292,-0.098C0.301,-0.1 0.309,-0.101 0.315,-0.102L0.335,-0.005C0.321,-0 0.307,0.003 0.292,0.005C0.277,0.006 0.263,0.007 0.25,0.007C0.198,0.007 0.157,-0.006 0.129,-0.032C0.101,-0.058 0.087,-0.095 0.087,-0.143L0.087,-0.676Z" style="fill:rgb(225,225,225);fill-rule:nonzero;"/>
            </g>
            <g transform="matrix(50,0,0,50,621.414316,437.693339)">
                <path d="M0.067,-0L0.067,-0.546L0.194,-0.546L0.194,-0L0.067,-0ZM0.131,-0.623C0.111,-0.623 0.093,-0.63 0.079,-0.644C0.064,-0.657 0.057,-0.674 0.057,-0.692C0.057,-0.712 0.064,-0.728 0.079,-0.742C0.093,-0.755 0.111,-0.762 0.131,-0.762C0.151,-0.762 0.169,-0.755 0.183,-0.742C0.198,-0.728 0.205,-0.712 0.205,-0.693C0.205,-0.674 0.198,-0.657 0.183,-0.644C0.169,-0.63 0.151,-0.623 0.131,-0.623Z" style="fill:rgb(225,225,225);fill-rule:nonzero;"/>
            </g>
            <g transform="matrix(50,0,0,50,634.490448,437.693339)">
                <path d="M0.304,0.011C0.251,0.011 0.205,-0.001 0.166,-0.024C0.127,-0.048 0.097,-0.081 0.075,-0.123C0.054,-0.165 0.043,-0.214 0.043,-0.27C0.043,-0.327 0.054,-0.376 0.075,-0.419C0.097,-0.461 0.127,-0.494 0.166,-0.517C0.205,-0.541 0.251,-0.553 0.304,-0.553C0.335,-0.553 0.363,-0.549 0.389,-0.541C0.415,-0.533 0.438,-0.522 0.459,-0.507C0.479,-0.492 0.496,-0.474 0.51,-0.453C0.524,-0.432 0.534,-0.408 0.54,-0.381L0.421,-0.356C0.417,-0.371 0.412,-0.383 0.406,-0.395C0.399,-0.406 0.391,-0.416 0.381,-0.424C0.371,-0.432 0.36,-0.439 0.347,-0.443C0.334,-0.448 0.32,-0.45 0.305,-0.45C0.276,-0.45 0.251,-0.442 0.231,-0.426C0.212,-0.41 0.197,-0.389 0.187,-0.362C0.178,-0.335 0.173,-0.305 0.173,-0.271C0.173,-0.237 0.178,-0.207 0.187,-0.18C0.197,-0.153 0.212,-0.131 0.231,-0.116C0.251,-0.1 0.276,-0.092 0.305,-0.092C0.321,-0.092 0.335,-0.094 0.348,-0.099C0.361,-0.103 0.372,-0.11 0.382,-0.118C0.392,-0.127 0.401,-0.137 0.407,-0.149C0.414,-0.161 0.419,-0.174 0.422,-0.189L0.541,-0.164C0.535,-0.137 0.525,-0.113 0.511,-0.091C0.498,-0.07 0.48,-0.051 0.46,-0.036C0.439,-0.021 0.416,-0.009 0.389,-0.001C0.363,0.007 0.335,0.011 0.304,0.011Z" style="fill:rgb(225,225,225);fill-rule:nonzero;"/>
            </g>
            <g transform="matrix(50,0,0,50,663.626167,437.693339)">
                <path d="M0.308,0.011C0.254,0.011 0.206,-0 0.167,-0.024C0.127,-0.047 0.097,-0.079 0.075,-0.121C0.054,-0.163 0.043,-0.213 0.043,-0.27C0.043,-0.326 0.054,-0.375 0.075,-0.417C0.096,-0.46 0.126,-0.493 0.164,-0.517C0.203,-0.541 0.248,-0.553 0.3,-0.553C0.334,-0.553 0.365,-0.547 0.395,-0.537C0.425,-0.526 0.452,-0.509 0.475,-0.487C0.498,-0.464 0.517,-0.436 0.53,-0.401C0.543,-0.367 0.55,-0.325 0.55,-0.277L0.55,-0.238L0.103,-0.238L0.103,-0.324L0.487,-0.324L0.427,-0.298C0.427,-0.329 0.423,-0.356 0.413,-0.379C0.404,-0.403 0.389,-0.421 0.371,-0.434C0.352,-0.447 0.329,-0.453 0.301,-0.453C0.273,-0.453 0.249,-0.447 0.23,-0.433C0.21,-0.42 0.195,-0.403 0.185,-0.381C0.175,-0.359 0.17,-0.334 0.17,-0.307L0.17,-0.247C0.17,-0.213 0.175,-0.184 0.187,-0.16C0.199,-0.136 0.215,-0.119 0.236,-0.107C0.258,-0.095 0.282,-0.089 0.31,-0.089C0.329,-0.089 0.346,-0.091 0.361,-0.097C0.376,-0.102 0.389,-0.11 0.4,-0.12C0.411,-0.131 0.419,-0.144 0.425,-0.159L0.542,-0.135C0.533,-0.106 0.518,-0.08 0.497,-0.058C0.475,-0.037 0.449,-0.019 0.417,-0.007C0.385,0.005 0.349,0.011 0.308,0.011Z" style="fill:rgb(225,225,225);fill-rule:nonzero;"/>
            </g>
            <g transform="matrix(50,0,0,50,705.784413,437.693339)">
                <path d="M0.319,-0L0.135,-0L0.135,-0.113L0.313,-0.113C0.364,-0.113 0.406,-0.122 0.44,-0.141C0.474,-0.159 0.5,-0.187 0.517,-0.225C0.534,-0.262 0.543,-0.309 0.543,-0.365C0.543,-0.42 0.534,-0.466 0.517,-0.503C0.5,-0.54 0.475,-0.568 0.441,-0.587C0.408,-0.605 0.366,-0.615 0.316,-0.615L0.132,-0.615L0.132,-0.728L0.324,-0.728C0.397,-0.728 0.459,-0.713 0.51,-0.684C0.562,-0.655 0.602,-0.613 0.63,-0.559C0.658,-0.505 0.672,-0.44 0.672,-0.365C0.672,-0.289 0.658,-0.224 0.63,-0.169C0.602,-0.115 0.562,-0.073 0.509,-0.044C0.456,-0.015 0.393,-0 0.319,-0ZM0.204,-0.728L0.204,-0L0.073,-0L0.073,-0.728L0.204,-0.728Z" style="fill:rgb(111,111,111);fill-rule:nonzero;"/>
            </g>
            <g transform="matrix(50,0,0,50,741.885975,437.693339)">
                <path d="M0.304,0.011C0.251,0.011 0.205,-0.001 0.166,-0.024C0.127,-0.048 0.097,-0.081 0.075,-0.123C0.054,-0.165 0.043,-0.214 0.043,-0.27C0.043,-0.327 0.054,-0.376 0.075,-0.419C0.097,-0.461 0.127,-0.494 0.166,-0.517C0.205,-0.541 0.251,-0.553 0.304,-0.553C0.357,-0.553 0.404,-0.541 0.443,-0.517C0.482,-0.494 0.512,-0.461 0.533,-0.419C0.555,-0.376 0.565,-0.327 0.565,-0.27C0.565,-0.214 0.555,-0.165 0.533,-0.123C0.512,-0.081 0.482,-0.048 0.443,-0.024C0.404,-0.001 0.357,0.011 0.304,0.011ZM0.304,-0.092C0.334,-0.092 0.358,-0.1 0.378,-0.116C0.398,-0.132 0.412,-0.153 0.422,-0.18C0.432,-0.207 0.436,-0.237 0.436,-0.271C0.436,-0.304 0.432,-0.334 0.422,-0.361C0.412,-0.388 0.398,-0.41 0.378,-0.426C0.358,-0.442 0.334,-0.45 0.304,-0.45C0.275,-0.45 0.25,-0.442 0.231,-0.426C0.211,-0.41 0.197,-0.388 0.187,-0.361C0.177,-0.335 0.173,-0.304 0.173,-0.271C0.173,-0.237 0.177,-0.207 0.187,-0.18C0.197,-0.153 0.211,-0.132 0.231,-0.116C0.25,-0.1 0.275,-0.092 0.304,-0.092Z" style="fill:rgb(111,111,111);fill-rule:nonzero;"/>
            </g>
            <g transform="matrix(50,0,0,50,772.323457,437.693339)">
                <path d="M0.304,0.011C0.251,0.011 0.205,-0.001 0.166,-0.024C0.127,-0.048 0.097,-0.081 0.075,-0.123C0.054,-0.165 0.043,-0.214 0.043,-0.27C0.043,-0.327 0.054,-0.376 0.075,-0.419C0.097,-0.461 0.127,-0.494 0.166,-0.517C0.205,-0.541 0.251,-0.553 0.304,-0.553C0.335,-0.553 0.363,-0.549 0.389,-0.541C0.415,-0.533 0.438,-0.522 0.459,-0.507C0.479,-0.492 0.496,-0.474 0.51,-0.453C0.524,-0.432 0.534,-0.408 0.54,-0.381L0.421,-0.356C0.417,-0.371 0.412,-0.383 0.406,-0.395C0.399,-0.406 0.391,-0.416 0.381,-0.424C0.371,-0.432 0.36,-0.439 0.347,-0.443C0.334,-0.448 0.32,-0.45 0.305,-0.45C0.276,-0.45 0.251,-0.442 0.231,-0.426C0.212,-0.41 0.197,-0.389 0.187,-0.362C0.178,-0.335 0.173,-0.305 0.173,-0.271C0.173,-0.237 0.178,-0.207 0.187,-0.18C0.197,-0.153 0.212,-0.131 0.231,-0.116C0.251,-0.1 0.276,-0.092 0.305,-0.092C0.321,-0.092 0.335,-0.094 0.348,-0.099C0.361,-0.103 0.372,-0.11 0.382,-0.118C0.392,-0.127 0.401,-0.137 0.407,-0.149C0.414,-0.161 0.419,-0.174 0.422,-0.189L0.541,-0.164C0.535,-0.137 0.525,-0.113 0.511,-0.091C0.498,-0.07 0.48,-0.051 0.46,-0.036C0.439,-0.021 0.416,-0.009 0.389,-0.001C0.363,0.007 0.335,0.011 0.304,0.011Z" style="fill:rgb(111,111,111);fill-rule:nonzero;"/>
            </g>
            <g transform="matrix(50,0,0,50,801.459176,437.693339)">
                <path d="M0.274,0.011C0.232,0.011 0.195,0.005 0.163,-0.007C0.13,-0.019 0.104,-0.037 0.083,-0.06C0.063,-0.083 0.049,-0.111 0.043,-0.144L0.162,-0.166C0.169,-0.139 0.182,-0.119 0.201,-0.106C0.221,-0.093 0.246,-0.086 0.276,-0.086C0.308,-0.086 0.332,-0.092 0.351,-0.105C0.369,-0.117 0.378,-0.133 0.378,-0.151C0.378,-0.167 0.372,-0.18 0.36,-0.19C0.348,-0.201 0.33,-0.208 0.305,-0.214L0.212,-0.234C0.16,-0.245 0.122,-0.263 0.096,-0.289C0.071,-0.314 0.058,-0.347 0.058,-0.387C0.058,-0.421 0.067,-0.45 0.086,-0.475C0.105,-0.499 0.13,-0.519 0.163,-0.532C0.196,-0.546 0.235,-0.553 0.278,-0.553C0.319,-0.553 0.355,-0.547 0.385,-0.535C0.415,-0.523 0.439,-0.507 0.457,-0.486C0.476,-0.465 0.488,-0.44 0.496,-0.412L0.382,-0.39C0.376,-0.409 0.365,-0.425 0.348,-0.438C0.332,-0.451 0.309,-0.458 0.28,-0.458C0.253,-0.458 0.23,-0.452 0.212,-0.44C0.194,-0.428 0.185,-0.413 0.185,-0.395C0.185,-0.379 0.191,-0.366 0.203,-0.355C0.215,-0.345 0.235,-0.337 0.263,-0.33L0.356,-0.311C0.407,-0.3 0.446,-0.282 0.471,-0.258C0.496,-0.233 0.508,-0.202 0.508,-0.163C0.508,-0.129 0.498,-0.099 0.479,-0.072C0.459,-0.046 0.431,-0.026 0.396,-0.011C0.36,0.004 0.32,0.011 0.274,0.011Z" style="fill:rgb(111,111,111);fill-rule:nonzero;"/>
            </g>
            <g transform="matrix(50,0,0,50,828.931788,437.693339)">
            </g>
        </g>
        <g transform="matrix(0.255943,0,0,0.255943,139.430707,477.129749)">
            <g transform="matrix(1,0,0,1,-305.0578,-383.78198)">
                <clipPath id="_clip1">
                    <rect x="95.833" y="95.833" width="418.449" height="575.897"/>
                </clipPath>
                <g clip-path="url(#_clip1)">
                    <g transform="matrix(4.166667,0,0,4.166667,-1462.310679,-667.558538)">
                        <path d="M443.382,218.855L413.382,201.535L443.382,184.214L473.382,201.535L443.382,218.855Z" style="fill:rgb(111,186,255);"/>
                    </g>
                    <g transform="matrix(4.166667,0,0,4.166667,-1462.310679,-667.558538)">
                        <path d="M443.382,218.855L413.382,201.535L443.382,184.214L473.382,201.535L443.382,218.855Z" style="fill:none;fill-rule:nonzero;stroke:black;stroke-width:2px;"/>
                    </g>
                    <g transform="matrix(4.166667,0,0,4.166667,-1462.310679,-667.558538)">
                        <path d="M375,233.827L405,251.147L405,320.429L375,303.109L375,233.827Z" style="fill:rgb(72,140,205);"/>
                    </g>
                    <g transform="matrix(4.166667,0,0,4.166667,-1462.310679,-667.558538)">
                        <path d="M375,233.827L375,268.468L405,285.788L405,251.147L375,233.827Z" style="fill:none;fill-rule:nonzero;stroke:black;stroke-width:2px;"/>
                    </g>
                    <g transform="matrix(4.166667,0,0,4.166667,-1462.310679,-667.558538)">
                        <path d="M375,268.468L375,303.109L405,320.429L405,285.788L375,268.468Z" style="fill:none;fill-rule:nonzero;stroke:black;stroke-width:2px;"/>
                    </g>
                    <g transform="matrix(4.166667,0,0,4.166667,-1462.310679,-667.558538)">
                        <path d="M465,251.147L435,233.827L435,268.468L465,251.147Z" style="fill:rgb(111,186,255);"/>
                    </g>
                    <g transform="matrix(4.166667,0,0,4.166667,-1462.310679,-667.558538)">
                        <path d="M465,251.147L435,233.827L435,268.468L465,251.147Z" style="fill:none;fill-rule:nonzero;stroke:black;stroke-width:2px;"/>
                    </g>
                    <g transform="matrix(4.166667,0,0,4.166667,-1462.310679,-667.558538)">
                        <path d="M405,285.788L465,251.147L465,285.788L405,320.429L405,285.788ZM443.382,218.855L473.382,201.535L473.382,236.176L443.382,253.496L443.382,218.855Z" style="fill:white;"/>
                    </g>
                    <g transform="matrix(4.166667,0,0,4.166667,-1462.310679,-667.558538)">
                        <path d="M443.382,218.855L443.382,253.496L473.382,236.176L473.382,201.535L443.382,218.855Z" style="fill:none;fill-rule:nonzero;stroke:black;stroke-width:2px;"/>
                    </g>
                    <g transform="matrix(4.166667,0,0,4.166667,-1462.310679,-667.558538)">
                        <path d="M405,285.788L435,268.468L435,303.109L405,320.429L405,285.788Z" style="fill:none;fill-rule:nonzero;stroke:black;stroke-width:2px;"/>
                    </g>
                    <g transform="matrix(4.166667,0,0,4.166667,-1462.310679,-667.558538)">
                        <path d="M435,268.468L465,251.147L465,285.788L435,303.109L435,268.468Z" style="fill:none;fill-rule:nonzero;stroke:black;stroke-width:2px;"/>
                    </g>
                    <g transform="matrix(4.166667,0,0,4.166667,-1462.310679,-667.558538)">
                        <path d="M413.382,201.535L413.382,236.176L443.382,253.496L443.382,218.855L413.382,201.535Z" style="fill:rgb(72,140,205);"/>
                    </g>
                    <g transform="matrix(4.166667,0,0,4.166667,-1462.310679,-667.558538)">
                        <path d="M413.382,201.535L413.382,236.176L443.382,253.496L443.382,218.855L413.382,201.535Z" style="fill:none;fill-rule:nonzero;stroke:black;stroke-width:2px;"/>
                    </g>
                    <g transform="matrix(4.166667,0,0,4.166667,-1462.310679,-667.558538)">
                        <path d="M404.955,216.506L374.955,233.827L404.955,251.147L434.955,233.827L404.955,216.506Z" style="fill:rgb(111,186,255);"/>
                    </g>
                    <g transform="matrix(4.166667,0,0,4.166667,-1462.310679,-667.558538)">
                        <path d="M404.955,216.506L374.955,233.827L404.955,251.147L434.955,233.827L404.955,216.506Z" style="fill:none;fill-rule:nonzero;stroke:black;stroke-width:2px;"/>
                    </g>
                    <g transform="matrix(4.166667,0,0,4.166667,-1462.310679,-667.558538)">
                        <path d="M405,251.147L435,233.827L435,268.468L405,285.788L405,251.147Z" style="fill:white;"/>
                    </g>
                    <g transform="matrix(4.166667,0,0,4.166667,-1462.310679,-667.558538)">
                        <path d="M405,251.147L435,233.827L435,268.468L405,285.788L405,251.147Z" style="fill:none;fill-rule:nonzero;stroke:black;stroke-width:2px;"/>
                    </g>
                </g>
            </g>
        </g>
    </g>
</svg>
